<?xml version="1.0" encoding="utf-8" standalone="no"?>
<!DOCTYPE svg PUBLIC "-//W3C//DTD SVG 1.1//EN"
  "http://www.w3.org/Graphics/SVG/1.1/DTD/svg11.dtd">
<!-- Created with matplotlib (https://matplotlib.org/) -->
<svg height="288pt" version="1.1" viewBox="0 0 360 288" width="360pt" xmlns="http://www.w3.org/2000/svg" xmlns:xlink="http://www.w3.org/1999/xlink">
 <metadata>
  <rdf:RDF xmlns:cc="http://creativecommons.org/ns#" xmlns:dc="http://purl.org/dc/elements/1.1/" xmlns:rdf="http://www.w3.org/1999/02/22-rdf-syntax-ns#">
   <cc:Work>
    <dc:type rdf:resource="http://purl.org/dc/dcmitype/StillImage"/>
    <dc:date>2021-06-13T12:27:07.485364</dc:date>
    <dc:format>image/svg+xml</dc:format>
    <dc:creator>
     <cc:Agent>
      <dc:title>Matplotlib v3.3.0rc1, https://matplotlib.org/</dc:title>
     </cc:Agent>
    </dc:creator>
   </cc:Work>
  </rdf:RDF>
 </metadata>
 <defs>
  <style type="text/css">
*{stroke-linecap:butt;stroke-linejoin:round;}
  </style>
 </defs>
 <g id="figure_1">
  <g id="patch_1">
   <path d="M 0 288 
L 360 288 
L 360 0 
L 0 0 
z
" style="fill:none;"/>
  </g>
  <g id="axes_1">
   <g id="patch_2">
    <path d="M 45 252 
L 324 252 
L 324 34.56 
L 45 34.56 
z
" style="fill:#ffffff;"/>
   </g>
   <g id="LineCollection_1">
    <path clip-path="url(#p9e550f62d8)" d="M 184.5 44.443636 
L 260.590909 93.861818 
" style="fill:none;stroke:#808080;"/>
    <path clip-path="url(#p9e550f62d8)" d="M 184.5 44.443636 
L 209.863636 93.861818 
" style="fill:none;stroke:#808080;"/>
    <path clip-path="url(#p9e550f62d8)" d="M 184.5 44.443636 
L 159.136364 93.861818 
" style="fill:none;stroke:#808080;"/>
    <path clip-path="url(#p9e550f62d8)" d="M 184.5 44.443636 
L 108.409091 93.861818 
" style="fill:none;stroke:#808080;"/>
    <path clip-path="url(#p9e550f62d8)" d="M 108.409091 93.861818 
L 209.863636 143.28 
" style="fill:none;stroke:#808080;"/>
    <path clip-path="url(#p9e550f62d8)" d="M 108.409091 93.861818 
L 108.409091 143.28 
" style="fill:none;stroke:#808080;"/>
    <path clip-path="url(#p9e550f62d8)" d="M 108.409091 93.861818 
L 57.681818 143.28 
" style="fill:none;stroke:#808080;"/>
    <path clip-path="url(#p9e550f62d8)" d="M 108.409091 93.861818 
L 184.5 44.443636 
" style="fill:none;stroke:#808080;"/>
    <path clip-path="url(#p9e550f62d8)" d="M 159.136364 93.861818 
L 260.590909 143.28 
" style="fill:none;stroke:#808080;"/>
    <path clip-path="url(#p9e550f62d8)" d="M 159.136364 93.861818 
L 159.136364 143.28 
" style="fill:none;stroke:#808080;"/>
    <path clip-path="url(#p9e550f62d8)" d="M 159.136364 93.861818 
L 184.5 44.443636 
" style="fill:none;stroke:#808080;"/>
    <path clip-path="url(#p9e550f62d8)" d="M 159.136364 93.861818 
L 57.681818 143.28 
" style="fill:none;stroke:#808080;"/>
    <path clip-path="url(#p9e550f62d8)" d="M 57.681818 143.28 
L 159.136364 192.698182 
" style="fill:none;stroke:#808080;"/>
    <path clip-path="url(#p9e550f62d8)" d="M 57.681818 143.28 
L 108.409091 192.698182 
" style="fill:none;stroke:#808080;"/>
    <path clip-path="url(#p9e550f62d8)" d="M 57.681818 143.28 
L 108.409091 93.861818 
" style="fill:none;stroke:#808080;"/>
    <path clip-path="url(#p9e550f62d8)" d="M 57.681818 143.28 
L 159.136364 93.861818 
" style="fill:none;stroke:#808080;"/>
    <path clip-path="url(#p9e550f62d8)" d="M 209.863636 93.861818 
L 311.318182 143.28 
" style="fill:none;stroke:#808080;"/>
    <path clip-path="url(#p9e550f62d8)" d="M 209.863636 93.861818 
L 184.5 44.443636 
" style="fill:none;stroke:#808080;"/>
    <path clip-path="url(#p9e550f62d8)" d="M 209.863636 93.861818 
L 159.136364 143.28 
" style="fill:none;stroke:#808080;"/>
    <path clip-path="url(#p9e550f62d8)" d="M 209.863636 93.861818 
L 108.409091 143.28 
" style="fill:none;stroke:#808080;"/>
    <path clip-path="url(#p9e550f62d8)" d="M 108.409091 143.28 
L 209.863636 192.698182 
" style="fill:none;stroke:#808080;"/>
    <path clip-path="url(#p9e550f62d8)" d="M 108.409091 143.28 
L 108.409091 93.861818 
" style="fill:none;stroke:#808080;"/>
    <path clip-path="url(#p9e550f62d8)" d="M 108.409091 143.28 
L 108.409091 192.698182 
" style="fill:none;stroke:#808080;"/>
    <path clip-path="url(#p9e550f62d8)" d="M 108.409091 143.28 
L 209.863636 93.861818 
" style="fill:none;stroke:#808080;"/>
    <path clip-path="url(#p9e550f62d8)" d="M 159.136364 143.28 
L 260.590909 192.698182 
" style="fill:none;stroke:#808080;"/>
    <path clip-path="url(#p9e550f62d8)" d="M 159.136364 143.28 
L 159.136364 93.861818 
" style="fill:none;stroke:#808080;"/>
    <path clip-path="url(#p9e550f62d8)" d="M 159.136364 143.28 
L 209.863636 93.861818 
" style="fill:none;stroke:#808080;"/>
    <path clip-path="url(#p9e550f62d8)" d="M 159.136364 143.28 
L 108.409091 192.698182 
" style="fill:none;stroke:#808080;"/>
    <path clip-path="url(#p9e550f62d8)" d="M 108.409091 192.698182 
L 184.5 242.116364 
" style="fill:none;stroke:#808080;"/>
    <path clip-path="url(#p9e550f62d8)" d="M 108.409091 192.698182 
L 57.681818 143.28 
" style="fill:none;stroke:#808080;"/>
    <path clip-path="url(#p9e550f62d8)" d="M 108.409091 192.698182 
L 108.409091 143.28 
" style="fill:none;stroke:#808080;"/>
    <path clip-path="url(#p9e550f62d8)" d="M 108.409091 192.698182 
L 159.136364 143.28 
" style="fill:none;stroke:#808080;"/>
    <path clip-path="url(#p9e550f62d8)" d="M 260.590909 93.861818 
L 184.5 44.443636 
" style="fill:none;stroke:#808080;"/>
    <path clip-path="url(#p9e550f62d8)" d="M 260.590909 93.861818 
L 311.318182 143.28 
" style="fill:none;stroke:#808080;"/>
    <path clip-path="url(#p9e550f62d8)" d="M 260.590909 93.861818 
L 260.590909 143.28 
" style="fill:none;stroke:#808080;"/>
    <path clip-path="url(#p9e550f62d8)" d="M 260.590909 93.861818 
L 209.863636 143.28 
" style="fill:none;stroke:#808080;"/>
    <path clip-path="url(#p9e550f62d8)" d="M 209.863636 143.28 
L 108.409091 93.861818 
" style="fill:none;stroke:#808080;"/>
    <path clip-path="url(#p9e550f62d8)" d="M 209.863636 143.28 
L 209.863636 192.698182 
" style="fill:none;stroke:#808080;"/>
    <path clip-path="url(#p9e550f62d8)" d="M 209.863636 143.28 
L 159.136364 192.698182 
" style="fill:none;stroke:#808080;"/>
    <path clip-path="url(#p9e550f62d8)" d="M 209.863636 143.28 
L 260.590909 93.861818 
" style="fill:none;stroke:#808080;"/>
    <path clip-path="url(#p9e550f62d8)" d="M 260.590909 143.28 
L 159.136364 93.861818 
" style="fill:none;stroke:#808080;"/>
    <path clip-path="url(#p9e550f62d8)" d="M 260.590909 143.28 
L 260.590909 192.698182 
" style="fill:none;stroke:#808080;"/>
    <path clip-path="url(#p9e550f62d8)" d="M 260.590909 143.28 
L 260.590909 93.861818 
" style="fill:none;stroke:#808080;"/>
    <path clip-path="url(#p9e550f62d8)" d="M 260.590909 143.28 
L 159.136364 192.698182 
" style="fill:none;stroke:#808080;"/>
    <path clip-path="url(#p9e550f62d8)" d="M 159.136364 192.698182 
L 57.681818 143.28 
" style="fill:none;stroke:#808080;"/>
    <path clip-path="url(#p9e550f62d8)" d="M 159.136364 192.698182 
L 184.5 242.116364 
" style="fill:none;stroke:#808080;"/>
    <path clip-path="url(#p9e550f62d8)" d="M 159.136364 192.698182 
L 209.863636 143.28 
" style="fill:none;stroke:#808080;"/>
    <path clip-path="url(#p9e550f62d8)" d="M 159.136364 192.698182 
L 260.590909 143.28 
" style="fill:none;stroke:#808080;"/>
    <path clip-path="url(#p9e550f62d8)" d="M 311.318182 143.28 
L 209.863636 93.861818 
" style="fill:none;stroke:#808080;"/>
    <path clip-path="url(#p9e550f62d8)" d="M 311.318182 143.28 
L 260.590909 93.861818 
" style="fill:none;stroke:#808080;"/>
    <path clip-path="url(#p9e550f62d8)" d="M 311.318182 143.28 
L 260.590909 192.698182 
" style="fill:none;stroke:#808080;"/>
    <path clip-path="url(#p9e550f62d8)" d="M 311.318182 143.28 
L 209.863636 192.698182 
" style="fill:none;stroke:#808080;"/>
    <path clip-path="url(#p9e550f62d8)" d="M 209.863636 192.698182 
L 108.409091 143.28 
" style="fill:none;stroke:#808080;"/>
    <path clip-path="url(#p9e550f62d8)" d="M 209.863636 192.698182 
L 209.863636 143.28 
" style="fill:none;stroke:#808080;"/>
    <path clip-path="url(#p9e550f62d8)" d="M 209.863636 192.698182 
L 184.5 242.116364 
" style="fill:none;stroke:#808080;"/>
    <path clip-path="url(#p9e550f62d8)" d="M 209.863636 192.698182 
L 311.318182 143.28 
" style="fill:none;stroke:#808080;"/>
    <path clip-path="url(#p9e550f62d8)" d="M 260.590909 192.698182 
L 159.136364 143.28 
" style="fill:none;stroke:#808080;"/>
    <path clip-path="url(#p9e550f62d8)" d="M 260.590909 192.698182 
L 260.590909 143.28 
" style="fill:none;stroke:#808080;"/>
    <path clip-path="url(#p9e550f62d8)" d="M 260.590909 192.698182 
L 311.318182 143.28 
" style="fill:none;stroke:#808080;"/>
    <path clip-path="url(#p9e550f62d8)" d="M 260.590909 192.698182 
L 184.5 242.116364 
" style="fill:none;stroke:#808080;"/>
    <path clip-path="url(#p9e550f62d8)" d="M 184.5 242.116364 
L 108.409091 192.698182 
" style="fill:none;stroke:#808080;"/>
    <path clip-path="url(#p9e550f62d8)" d="M 184.5 242.116364 
L 159.136364 192.698182 
" style="fill:none;stroke:#808080;"/>
    <path clip-path="url(#p9e550f62d8)" d="M 184.5 242.116364 
L 209.863636 192.698182 
" style="fill:none;stroke:#808080;"/>
    <path clip-path="url(#p9e550f62d8)" d="M 184.5 242.116364 
L 260.590909 192.698182 
" style="fill:none;stroke:#808080;"/>
   </g>
   <g id="matplotlib.axis_1"/>
   <g id="matplotlib.axis_2"/>
   <g id="PathCollection_1">
    <defs>
     <path d="M 0 10 
C 2.652031 10 5.195799 8.946337 7.071068 7.071068 
C 8.946337 5.195799 10 2.652031 10 -0 
C 10 -2.652031 8.946337 -5.195799 7.071068 -7.071068 
C 5.195799 -8.946337 2.652031 -10 0 -10 
C -2.652031 -10 -5.195799 -8.946337 -7.071068 -7.071068 
C -8.946337 -5.195799 -10 -2.652031 -10 0 
C -10 2.652031 -8.946337 5.195799 -7.071068 7.071068 
C -5.195799 8.946337 -2.652031 10 0 10 
z
" id="C0_0_8e3cff4ac8"/>
    </defs>
    <g clip-path="url(#p9e550f62d8)">
     <use style="fill:#bd1726;" x="184.5" xlink:href="#C0_0_8e3cff4ac8" y="44.443636"/>
    </g>
    <g clip-path="url(#p9e550f62d8)">
     <use style="fill:#da362a;" x="108.409091" xlink:href="#C0_0_8e3cff4ac8" y="93.861818"/>
    </g>
    <g clip-path="url(#p9e550f62d8)">
     <use style="fill:#eb5b3b;" x="159.136364" xlink:href="#C0_0_8e3cff4ac8" y="93.861818"/>
    </g>
    <g clip-path="url(#p9e550f62d8)">
     <use style="fill:#f7804c;" x="57.681818" xlink:href="#C0_0_8e3cff4ac8" y="143.28"/>
    </g>
    <g clip-path="url(#p9e550f62d8)">
     <use style="fill:#fca75e;" x="209.863636" xlink:href="#C0_0_8e3cff4ac8" y="93.861818"/>
    </g>
    <g clip-path="url(#p9e550f62d8)">
     <use style="fill:#fdc776;" x="108.409091" xlink:href="#C0_0_8e3cff4ac8" y="143.28"/>
    </g>
    <g clip-path="url(#p9e550f62d8)">
     <use style="fill:#fee38f;" x="159.136364" xlink:href="#C0_0_8e3cff4ac8" y="143.28"/>
    </g>
    <g clip-path="url(#p9e550f62d8)">
     <use style="fill:#fff5af;" x="108.409091" xlink:href="#C0_0_8e3cff4ac8" y="192.698182"/>
    </g>
    <g clip-path="url(#p9e550f62d8)">
     <use style="fill:#f3faaf;" x="260.590909" xlink:href="#C0_0_8e3cff4ac8" y="93.861818"/>
    </g>
    <g clip-path="url(#p9e550f62d8)">
     <use style="fill:#dcf08f;" x="209.863636" xlink:href="#C0_0_8e3cff4ac8" y="143.28"/>
    </g>
    <g clip-path="url(#p9e550f62d8)">
     <use style="fill:#bfe47a;" x="260.590909" xlink:href="#C0_0_8e3cff4ac8" y="143.28"/>
    </g>
    <g clip-path="url(#p9e550f62d8)">
     <use style="fill:#9fd669;" x="159.136364" xlink:href="#C0_0_8e3cff4ac8" y="192.698182"/>
    </g>
    <g clip-path="url(#p9e550f62d8)">
     <use style="fill:#79c565;" x="311.318182" xlink:href="#C0_0_8e3cff4ac8" y="143.28"/>
    </g>
    <g clip-path="url(#p9e550f62d8)">
     <use style="fill:#4fb25d;" x="209.863636" xlink:href="#C0_0_8e3cff4ac8" y="192.698182"/>
    </g>
    <g clip-path="url(#p9e550f62d8)">
     <use style="fill:#219b52;" x="260.590909" xlink:href="#C0_0_8e3cff4ac8" y="192.698182"/>
    </g>
    <g clip-path="url(#p9e550f62d8)">
     <use style="fill:#0c7f43;" x="184.5" xlink:href="#C0_0_8e3cff4ac8" y="242.116364"/>
    </g>
   </g>
  </g>
 </g>
 <defs>
  <clipPath id="p9e550f62d8">
   <rect height="217.44" width="279" x="45" y="34.56"/>
  </clipPath>
 </defs>
</svg>
